<?xml version="1.0" encoding="UTF-8"?>
<svg id="Capa_1" xmlns="http://www.w3.org/2000/svg" viewBox="0 0 373.34 157.53">
  <defs>
    <style>
      .cls-1 {
        fill: #fff;
        stroke: #fff;
        stroke-miterlimit: 10;
      }
    </style>
  </defs>
  <path class="cls-1" d="M61.6,142.12c-1.66,3.4-4.02,6.12-6.89,8.38-4.76,3.73-10.26,5.6-16.26,6.15-3.35.3-6.66.18-9.96-.38-5.15-.87-9.84-2.8-14.04-5.9-4.96-3.67-8.51-8.42-10.85-14.07-1.98-4.77-2.99-9.74-3.08-14.91-.07-4.11.15-8.19,1.16-12.2,1.82-7.2,5.36-13.37,11.03-18.26,4.76-4.11,10.32-6.58,16.47-7.75,3.32-.63,6.67-.97,10.05-.76,9.34.59,17.39,4.02,23.66,11.07,2.78,3.13,4.71,6.78,5.96,10.79.27.87.02,1.24-.85,1.41-4.1.82-8.18,1.72-12.29,2.52-2.18.43-2.22.39-3.19-1.64-3.55-7.4-11.63-10.85-19.55-9.09-3.93.87-7.26,2.77-9.87,5.8-2.51,2.92-4.07,6.33-4.85,10.1-.73,3.54-.89,7.1-.34,10.66.62,4.01,2.06,7.7,4.63,10.93,2.51,3.16,5.69,5.39,9.49,6.61,4.57,1.47,9.21,1.68,13.88.27,4.63-1.39,8.33-3.97,10.91-8.07,1.43-2.28,2.14-4.8,2.39-7.46.05-.5-.15-.74-.65-.75-.39,0-.79-.01-1.18-.01-8.8,0-17.6,0-26.4,0-1.62,0-1.73-.11-1.73-1.71,0-2.54,0-5.08,0-7.62,0-1.24.19-1.42,1.43-1.42,14.69,0,29.38,0,44.07-.02.92,0,1.26.28,1.26,1.23-.02,12.43-.01,24.87-.02,37.3,0,1.18-.12,1.31-1.28,1.31-3.3,0-6.61-.01-9.91.01-.9,0-1.36-.25-1.48-1.23-.39-3.42-.87-6.84-1.31-10.25-.04-.32-.04-.65-.4-1.05Z"/>
  <path class="cls-1" d="M241.25,119.72c0-11.07,0-22.13,0-33.2,0-1.68.09-1.77,1.77-1.77,11.29,0,22.58-.11,33.86.04,6.21.08,12.26,1.2,17.54,4.76,5.42,3.65,8.24,8.8,8.7,15.29.25,3.6-.32,7-2.01,10.19-2.03,3.81-5.14,6.51-9,8.4-1.32.65-2.69,1.18-4.11,1.58-.22.06-.5.09-.54.35-.05.29.26.34.44.45,3.12,1.82,4.67,4.72,5.6,8.05.74,2.66,1.48,5.33,2.25,7.98,1.06,3.63,4.09,4.5,7.2,1.88,1.51-1.27,1.47-1.3,2.28.54.77,1.76,1.55,3.52,2.37,5.25.34.72.29,1.19-.36,1.76-4.62,4.01-10.04,5.53-16.02,4.87-4.08-.45-7.24-2.64-9.43-6.15-1.65-2.64-2.31-5.65-3.22-8.56-.7-2.24-1.3-4.5-2.06-6.72-.96-2.78-2.59-5.02-5.55-6.03-.51-.17-1.02-.21-1.54-.22-3.21,0-6.41-.02-9.62-.01-1.21,0-1.28.07-1.28,1.27,0,7.55,0,15.1,0,22.65,0,2.24-.01,2.25-2.21,2.25-4.42,0-8.83,0-13.25,0-1.74,0-1.8-.06-1.8-1.83,0-11.03,0-22.07,0-33.1ZM258.51,107.01c0,2.76,0,5.53,0,8.29,0,1.21.08,1.28,1.27,1.28,4.38,0,8.76,0,13.14,0,1.93,0,3.85-.05,5.73-.58,3.11-.87,5.56-2.52,6.8-5.63,1.47-3.67.23-8.01-2.92-10.41-2.64-2.01-5.74-2.42-8.9-2.47-4.64-.07-9.28,0-13.92-.04-.96,0-1.23.35-1.22,1.26.04,2.76.02,5.53.01,8.29Z"/>
  <path class="cls-1" d="M342.13,157.03c-5.97-.06-11.8-.9-17.27-3.45-7.55-3.52-12.5-9.15-14.17-17.42-.12-.57-.24-1.15-.33-1.72-.12-.73.14-1.15.95-1.28,1.99-.33,3.98-.74,5.97-1.1,2.41-.44,4.81-.88,7.22-1.32,1.25-.23,1.34-.11,1.6,1.12.97,4.6,3.51,8.06,7.7,10.28,3.21,1.7,6.65,2.15,10.24,2.03,2.19-.07,4.3-.42,6.31-1.24,2.93-1.2,5.16-3.08,5.73-6.38.48-2.79-.7-5.25-3.15-6.7-2.66-1.57-5.62-2.28-8.6-2.9-4.99-1.04-10.06-1.71-14.97-3.12-3.92-1.12-7.67-2.63-10.84-5.3-3.88-3.28-5.66-7.5-5.86-12.51-.2-5.17,1.1-9.85,4.34-13.94,3.26-4.12,7.56-6.65,12.54-8.11,5.14-1.5,10.36-1.95,15.71-1.27,4.68.6,9.08,1.91,13.03,4.49,5.21,3.39,8.67,8.03,9.9,14.19.25,1.23.1,1.4-1.1,1.67-4.05.9-8.1,1.81-12.15,2.71-.29.06-.59.08-.87.15-.72.2-1-.13-1.14-.8-.44-2.13-1.22-4.13-2.7-5.78-3.08-3.44-7.01-4.57-11.51-4.15-2.76.26-5.21,1.15-7.21,3.13-2.62,2.6-3.13,8.44,1.5,10.7,2.47,1.2,5.08,1.84,7.76,2.31,2.86.49,5.72,1.04,8.57,1.6,3.14.62,6.29,1.2,9.3,2.3,4.26,1.56,8.17,3.66,10.93,7.42,1.94,2.65,2.94,5.66,3.18,8.89.35,4.68-.46,9.14-2.95,13.21-2.02,3.31-4.8,5.81-8.15,7.72-4.69,2.67-9.8,3.89-15.13,4.37-1.47.13-2.94.2-4.41.19Z"/>
  <path class="cls-1" d="M183.71,119.67c0-11.03,0-22.06,0-33.1,0-1.78.03-1.81,1.8-1.81,15.28,0,30.56,0,45.84,0,1.77,0,1.85.08,1.85,1.79,0,3.48,0,6.96,0,10.45,0,1.36-.09,1.44-1.45,1.44-9.98,0-19.96,0-29.94,0q-1.57,0-1.57,1.58c0,3.78,0,7.55,0,11.33,0,1.48.01,1.49,1.56,1.49,8.64,0,17.27,0,25.91,0,1.49,0,1.54.05,1.54,1.53,0,3.06,0,6.12,0,9.18,0,1.33-.12,1.43-1.47,1.43-8.67,0-17.34,0-26.01,0-1.52,0-1.54.02-1.54,1.52,0,4.33,0,8.66,0,12.99,0,1.27.05,1.31,1.34,1.31,10.17,0,20.35,0,30.52,0,.39,0,.79,0,1.18.02.59.02.9.33.9.93,0,3.97,0,7.94,0,11.91,0,.63-.34.96-.97.98-.29,0-.59.01-.88.01-15.64,0-31.28,0-46.92,0-1.68,0-1.68,0-1.68-1.69,0-11.1,0-22.2,0-33.29Z"/>
  <path class="cls-1" d="M143.06,138.99c.42-1.28.86-2.56,1.27-3.85,1.35-4.21,2.68-8.43,4.03-12.65,2.82-8.83,5.65-17.65,8.48-26.48,1.08-3.37,2.18-6.74,3.25-10.12.25-.79.69-1.15,1.56-1.15,5.1.03,10.21,0,15.31.02,1.09,0,1.27.29.89,1.32-3.94,10.72-7.89,21.43-11.82,32.15-3.21,8.77-6.4,17.54-9.61,26.31-1.09,2.96-2.27,5.89-3.3,8.87-.35,1-.88,1.27-1.86,1.26-3.73-.04-7.46-.02-11.19-.02-1.93,0-3.86-.02-5.79,0-.79.01-1.22-.26-1.5-1.05-2.6-7.19-5.26-14.36-7.89-21.54-2.88-7.85-5.75-15.69-8.64-23.54-2.43-6.6-4.87-13.19-7.3-19.78-.33-.88-.64-1.77-.98-2.65-.37-.97-.17-1.32.92-1.34,2.06-.03,4.12-.01,6.18-.01,3.01,0,6.02.02,9.03-.01.91-.01,1.37.35,1.64,1.19,1.86,5.86,3.74,11.71,5.63,17.56,1.74,5.38,3.5,10.76,5.23,16.14,1.66,5.17,3.31,10.34,4.97,15.5.41,1.28.86,2.56,1.3,3.83.07,0,.15,0,.22.01Z"/>
  <path class="cls-1" d="M164.32.54c5.69.02,10.66,1.99,15.05,5.52.56.45,1.14.88,1.65,1.38.54.53.95.51,1.5,0,2.32-2.13,4.92-3.86,7.84-5.1,3.63-1.54,7.42-2.22,11.32-1.64,10.81,1.62,17.98,7.78,21.28,18.03,2.33,7.21.84,14-4.1,19.84-4.57,5.41-9.6,10.4-14.76,15.24-6.43,6.03-13.13,11.74-20.19,17.03-2.08,1.56-2.11,1.59-4.17.03-4.03-3.06-7.96-6.23-11.81-9.52-4.64-3.97-9.12-8.11-13.45-12.4-3.5-3.46-7.06-6.9-10.1-10.77-5.22-6.63-6.14-13.95-2.98-21.77,1.95-4.83,5.13-8.67,9.4-11.61,2.46-1.69,5.18-2.88,8.1-3.63,1.79-.46,3.6-.63,5.44-.64ZM164.83,7.37c-1.31.06-2.23-.02-3.14.15-7.91,1.48-14.32,8.16-15.15,15.78-.4,3.69.48,7.07,2.72,10.01,1.36,1.78,2.92,3.42,4.47,5.05,4.25,4.47,8.63,8.8,13.18,12.97,4.55,4.16,9.24,8.16,14.08,11.99.57.45.98.48,1.54.03,5.05-3.99,9.94-8.16,14.68-12.49,4.94-4.51,9.67-9.25,14.22-14.15,1.66-1.78,3.38-3.53,4.37-5.84,1.36-3.16,1.66-6.36.8-9.71-.79-3.08-2.36-5.71-4.49-8.01-2.79-3.01-6.27-4.95-10.3-5.65-4.69-.82-8.92.52-12.73,3.29-2.53,1.84-4.52,4.22-6.54,6.56-.6.69-.95.64-1.54,0-1.78-1.9-3.35-3.99-5.4-5.65-3.27-2.65-6.87-4.35-10.78-4.34Z"/>
  <path class="cls-1" d="M102.07,119.7c0,11.1,0,22.19,0,33.29,0,1.64-.02,1.66-1.62,1.66-4.68,0-9.36,0-14.04,0-1.37,0-1.45-.08-1.45-1.44,0-22.32,0-44.65,0-66.97,0-1.41.07-1.48,1.5-1.48,4.68,0,9.36,0,14.04,0,1.46,0,1.56.1,1.56,1.55,0,11.13,0,22.26,0,33.39Z"/>
</svg>